<mxfile host="app.diagrams.net" modified="2023-07-13T18:22:40.418Z" agent="Mozilla/5.0 (Windows NT 10.0; Win64; x64) AppleWebKit/537.36 (KHTML, like Gecko) Chrome/114.0.0.0 Safari/537.36" version="21.6.2" etag="1nxJYu4D2941VCCdenhd" type="github">
  <diagram name="Страница 1" id="s0BZNsnkd51M9M7YXBGF">
    <mxGraphModel>
      <root>
        <mxCell id="0" />
        <mxCell id="1" parent="0" />
      </root>
    </mxGraphModel>
  </diagram>
</mxfile>
